C:/Program Files/Krita (x64)/bin/ffmpeg.exe -hide_banner -y -y -r 24 -i C:/Users/Mishalia/Documents/GitHub/6-10-16-20M/6-10Keyframes/frame%04d.png -c:v libopenh264 -b:v 5000k C:/Users/Mishalia/Documents/GitHub/6-10-16-20M/6-10Keyframes/Proper version.mp4
=====================================================
Input #0, image2, from 'C:/Users/Mishalia/Documents/GitHub/6-10-16-20M/6-10Keyframes/frame%04d.png':
  Duration: 00:00:04.36, start: 0.000000, bitrate: N/A
  Stream #0:0: Video: png, rgba(pc), 1920x1080 [SAR 9448:9448 DAR 16:9], 25 fps, 25 tbr, 25 tbn, 25 tbc
Stream mapping:
  Stream #0:0 -> #0:0 (png (native) -> h264 (libopenh264))
Press [q] to stop, [?] for help
[libopenh264 @ 00000205baa8cb80] Slice count will be set automatically
[libopenh264 @ 00000205baa8cb80] [OpenH264] this = 0x00000205B99319E0, Warning:bEnableFrameSkip = 0,bitrate can't be controlled for RC_QUALITY_MODE,RC_BITRATE_MODE and RC_TIMESTAMP_MODE without enabling skip frame.
Output #0, mp4, to 'C:/Users/Mishalia/Documents/GitHub/6-10-16-20M/6-10Keyframes/Proper version.mp4':
  Metadata:
    encoder         : Lavf58.76.100
  Stream #0:0: Video: h264 (avc1 / 0x31637661), yuv420p(tv, progressive), 1920x1080 [SAR 1:1 DAR 16:9], q=2-31, 5000 kb/s, 24 fps, 12288 tbn
    Metadata:
      encoder         : Lavc58.134.100 libopenh264
    Side data:
      cpb: bitrate max/min/avg: 5000000/0/5000000 buffer size: 0 vbv_delay: N/A
frame=    1 fps=0.0 q=-0.0 size=       0kB time=00:00:00.00 bitrate=4740.7kbits/s speed=0.00323x    frame=   46 fps=0.0 q=-0.0 size=     256kB time=00:00:01.87 bitrate=1118.6kbits/s speed=3.56x    frame=  107 fps=104 q=-0.0 size=     512kB time=00:00:04.41 bitrate= 949.7kbits/s speed= 4.3x    frame=  109 fps=104 q=-0.0 Lsize=     518kB time=00:00:04.50 bitrate= 943.1kbits/s speed=4.29x    
video:517kB audio:0kB subtitle:0kB other streams:0kB global headers:0kB muxing overhead: 0.242808%
